# xmcd
#
# Track frame offsets:
# 150
# 14298
# 32928
# 49803
# 65490
# 82878
# 94488
# 113442
# 132558
# 149541
# 166065
# 191067
# 203379
# 226032
# 244770
# 253680
# 270069
# 294369
# 311055
# 329766
#
# Disc length: 4595 seconds
#
#
# Revision: 0
# Processed by: cddbd v1.5.2PL0 Copyright (c) Steve Scherf et al.
# Submitted via: FreeRIP 2.945 
#
DISCID=1711f114
DTITLE=Asas livres - O Melhor de  - Asas livres - O Melhor de 
DYEAR=1900
DGENRE=
TTITLE0=Meu paraiso
TTITLE1=Por Te Amar Demais
TTITLE2=Amo em Silencio
TTITLE3=Anjo Azul
TTITLE4=E Voce que eu amo
TTITLE5=Amor Demais
TTITLE6=Carente de felicidade
TTITLE7=Cristina
TTITLE8=A gente Fica sem se Amar
TTITLE9=Ainda Queima a Esperanca
TTITLE10=Nem Mais Uma Duvida
TTITLE11=Que Saudade de Voce
TTITLE12=Segredo
TTITLE13=Arrocha
TTITLE14=Foi tudo culpa do Amor
TTITLE15=Sem Ter seu Amor
TTITLE16=Por Deus eu te Amo
TTITLE17=Minha Tristeza
TTITLE18=Dou a Vida por um beijo
TTITLE19=Voa Livre
EXTD=
EXTT0=
EXTT1=
EXTT2=
EXTT3=
EXTT4=
EXTT5=
EXTT6=
EXTT7=
EXTT8=
EXTT9=
EXTT10=
EXTT11=
EXTT12=
EXTT13=
EXTT14=
EXTT15=
EXTT16=
EXTT17=
EXTT18=
EXTT19=
PLAYORDER=
